<?xml version="1.0" standalone="no"?>
<!DOCTYPE svg PUBLIC "-//W3C//DTD SVG 20010904//EN"
 "http://www.w3.org/TR/2001/REC-SVG-20010904/DTD/svg10.dtd">
<svg version="1.0" xmlns="http://www.w3.org/2000/svg"
 width="200.000000pt" height="200.000000pt" viewBox="0 0 200.000000 200.000000"
 preserveAspectRatio="xMidYMid meet">
<metadata>
Created by potrace 1.15, written by Peter Selinger 2001-2017
</metadata>
<g transform="translate(0.000000,200.000000) scale(0.100000,-0.100000)"
fill="#000000" stroke="none">
<path d="M315 1887 c-23 -29 -152 -175 -183 -207 l-33 -35 40 -35 c49 -44 69
-83 76 -152 5 -44 0 -68 -25 -138 -61 -165 -72 -217 -73 -350 -2 -132 11 -202
54 -298 67 -148 202 -295 376 -411 124 -83 280 -161 322 -161 15 0 75 23 132
51 231 113 387 240 498 404 94 137 124 236 123 406 -1 130 -16 208 -62 325
-59 147 -50 234 31 315 l47 45 -52 56 c-28 31 -76 86 -106 121 -30 36 -61 68
-67 71 -7 3 -32 -7 -55 -23 -143 -93 -295 -94 -441 -2 l-46 30 -57 -34 c-89
-54 -145 -69 -235 -62 -69 4 -89 11 -165 51 -47 25 -87 46 -88 46 0 -1 -5 -6
-11 -13z m895 -642 l55 -55 -250 -250 -250 -250 -145 145 -145 145 55 55 54
55 88 -87 88 -88 193 193 c105 105 194 192 197 192 3 0 30 -25 60 -55z"/>
</g>
</svg>
